<svg width="17" height="17" viewBox="0 0 17 17" fill="none" xmlns="http://www.w3.org/2000/svg">
<path fill-rule="evenodd" clip-rule="evenodd" d="M8.14328 11.0002C9.72123 11.0002 11.0004 9.72105 11.0004 8.14309C11.0004 6.56514 9.72123 5.28595 8.14328 5.28595C6.56532 5.28595 5.28613 6.56514 5.28613 8.14309C5.28613 9.72105 6.56532 11.0002 8.14328 11.0002Z" stroke="#013C61" stroke-width="1.5" stroke-linecap="round" stroke-linejoin="round"/>
<path d="M11.0004 5.28596V8.85739C11.0004 10.0409 11.9598 11.0003 13.1433 11.0003C14.3267 11.0003 15.2861 10.0409 15.2861 8.85739V8.14311C15.2859 4.82375 12.9991 1.94198 9.76659 1.18761C6.5341 0.433237 3.20791 2.0051 1.73846 4.98148C0.269016 7.95786 1.0436 11.5543 3.60801 13.6619C6.17243 15.7695 9.85078 15.8327 12.4861 13.8145" stroke="#013C61" stroke-width="1.5" stroke-linecap="round" stroke-linejoin="round"/>
</svg>
